<?xml version="1.0" encoding="UTF-8" standalone="no"?>
<svg
   style="height: 512px; width: 512px;"
   viewBox="0 0 512 512"
   version="1.1"
   id="svg6"
   sodipodi:docname="d1.svg"
   inkscape:version="1.2.1 (9c6d41e410, 2022-07-14)"
   xmlns:inkscape="http://www.inkscape.org/namespaces/inkscape"
   xmlns:sodipodi="http://sodipodi.sourceforge.net/DTD/sodipodi-0.dtd"
   xmlns="http://www.w3.org/2000/svg"
   xmlns:svg="http://www.w3.org/2000/svg">
  <defs
     id="defs10" />
  <sodipodi:namedview
     id="namedview8"
     pagecolor="#ffffff"
     bordercolor="#000000"
     borderopacity="0.25"
     inkscape:showpageshadow="2"
     inkscape:pageopacity="0.0"
     inkscape:pagecheckerboard="0"
     inkscape:deskcolor="#d1d1d1"
     showgrid="false"
     inkscape:zoom="1.6191406"
     inkscape:cx="223.26659"
     inkscape:cy="256.30881"
     inkscape:window-width="1920"
     inkscape:window-height="1009"
     inkscape:window-x="-8"
     inkscape:window-y="-8"
     inkscape:window-maximized="1"
     inkscape:current-layer="svg6" />
  <path
     id="path345"
     style="stroke:#000000;stroke-width:0.561926;stroke-linecap:round"
     d="M 256.16211 94.544922 A 162.52884 162.52884 0 0 0 93.632812 257.07422 A 162.52884 162.52884 0 0 0 256.16211 419.60156 A 162.52884 162.52884 0 0 0 418.69141 257.07422 A 162.52884 162.52884 0 0 0 256.16211 94.544922 z M 256.16211 212.30469 A 44.768604 44.768604 0 0 1 300.92969 257.07422 A 44.768604 44.768604 0 0 1 256.16211 301.8418 A 44.768604 44.768604 0 0 1 211.39258 257.07422 A 44.768604 44.768604 0 0 1 256.16211 212.30469 z " />
</svg>
